# xmcd CD database file
# Copyright (C) 1993-1998 Ti Kan
#
# Track frame offsets:
#  150
#  7725
#  25807
#  40852
#  69690
#  89847
#  105595
#  120290
#  137090
#  159122
#  175527
#  204395
#  220640
#  232137
#  243320
#  274745
#  286345
#  308495
#
# Disc length: 4357 seconds
#
# Revision: 1
# Processed by: cddbd v1.4b41PL1 Copyright (c) Steve Scherf et al.
# Submitted via: CDWizzard Release:4.35
#
DISCID=e7110312
DTITLE=Larry Norman - Gathered moments
DYEAR=1900
DGENRE=
TTITLE0=Without you
TTITLE1=If I were a singer
TTITLE2=You got the blues
TTITLE3=Watch what you're doing
TTITLE4=Moonshine
TTITLE5=Parson Brown
TTITLE6=Stranger
TTITLE7=Stop this flight
TTITLE8=If you don't love the Lord
TTITLE9=What's wrong with this body?
TTITLE10=Unlucky blues
TTITLE11=I dance before the Lord
TTITLE12=Slow fast
TTITLE13=Dove l'etude
TTITLE14=Standing at the crossroads
TTITLE15=Rock the flock
TTITLE16=A woman not a maid
TTITLE17=Talkin' 'bout love
EXTD=
EXTT0=
EXTT1=
EXTT2=
EXTT3=
EXTT4=
EXTT5=
EXTT6=
EXTT7=
EXTT8=
EXTT9=
EXTT10=
EXTT11=
EXTT12=
EXTT13=
EXTT14=
EXTT15=
EXTT16=
EXTT17=
PLAYORDER=
